<svg width="28" height="25" viewBox="0 0 28 25" fill="none" xmlns="http://www.w3.org/2000/svg">
<path fill-rule="evenodd" clip-rule="evenodd" d="M15.3347 0.246083C15.1296 0.335287 14.9432 0.466027 14.7864 0.630813C14.6291 0.795183 14.5043 0.990447 14.4192 1.20542C14.3341 1.4204 14.2903 1.65086 14.2903 1.88361C14.2903 2.11636 14.3341 2.34682 14.4192 2.56179C14.5043 2.77677 14.6291 2.97203 14.7864 3.1364L21.5752 10.2475H2.25908C1.78115 10.2475 1.32279 10.4848 0.984839 10.9072C0.64689 11.3297 0.457031 11.9026 0.457031 12.5C0.457031 13.0975 0.64689 13.6704 0.984839 14.0928C1.32279 14.5153 1.78115 14.7526 2.25908 14.7526H21.5761L14.7864 21.8646C14.4693 22.1969 14.2911 22.6475 14.2911 23.1174C14.2911 23.5873 14.4693 24.0379 14.7864 24.3702C15.1034 24.7025 15.5335 24.8891 15.9819 24.8891C16.4304 24.8891 16.8604 24.7025 17.1775 24.3702L27.3095 13.7533C27.4668 13.5889 27.5915 13.3937 27.6767 13.1787C27.7618 12.9637 27.8056 12.7333 27.8056 12.5005C27.8056 12.2678 27.7618 12.0373 27.6767 11.8223C27.5915 11.6073 27.4668 11.4121 27.3095 11.2477L17.1775 0.630813C17.0207 0.466027 16.8343 0.335287 16.6291 0.246083C16.424 0.156878 16.2041 0.110962 15.9819 0.110962C15.7598 0.110962 15.5399 0.156878 15.3347 0.246083Z" fill="#F58021"/>
</svg>
